<?xml version="1.0" encoding="us-ascii" standalone="no"?><svg xmlns="http://www.w3.org/2000/svg" xmlns:xlink="http://www.w3.org/1999/xlink" contentStyleType="text/css" height="848px" preserveAspectRatio="none" style="width:1745px;height:848px;background:#FFFFFF;" version="1.1" viewBox="0 0 1745 848" width="1745px" zoomAndPan="magnify"><defs/><g><!--class RenderBase--><g id="elem_RenderBase"><rect codeLine="1" fill="#F1F1F1" height="96.8906" id="RenderBase" rx="2.5" ry="2.5" style="stroke:#181818;stroke-width:0.5;" width="423" x="857.5" y="7"/><ellipse cx="1021.25" cy="23" fill="#A9DCDF" rx="11" ry="11" style="stroke:#181818;stroke-width:1.0;"/><path d="M1023.3281,24.8125 L1023.7188,25.7969 L1023.3281,25.7969 C1022.875,25.7969 1022.7656,25.8125 1022.6094,25.9219 C1022.3594,26.0781 1022.2031,26.3594 1022.2031,26.6563 C1022.2031,26.9219 1022.3438,27.1719 1022.5625,27.3281 C1022.7031,27.4531 1022.9063,27.5 1023.3281,27.5 L1025.6875,27.5 C1026.0469,27.5 1026.2656,27.4688 1026.4063,27.375 C1026.6563,27.2344 1026.8125,26.9375 1026.8125,26.6563 C1026.8125,26.375 1026.6719,26.125 1026.4531,25.9688 C1026.2813,25.8281 1026.125,25.7969 1025.6563,25.7969 L1022.2656,17.5938 L1018.5938,17.5938 C1018.1406,17.5938 1018.0156,17.6094 1017.8594,17.7031 C1017.6094,17.875 1017.4531,18.1563 1017.4531,18.4375 C1017.4531,18.7188 1017.5938,18.9688 1017.8125,19.1406 C1017.9844,19.25 1018.1563,19.2813 1018.5938,19.2813 L1019.6719,19.2813 L1017.0313,25.7969 C1016.6094,25.7969 1016.4531,25.8125 1016.2969,25.9219 C1016.0469,26.0781 1015.8906,26.3594 1015.8906,26.6563 C1015.8906,27.2188 1016.2656,27.5 1017.0156,27.5 L1019.2813,27.5 C1019.6406,27.5 1019.8594,27.4688 1019.9844,27.375 C1020.25,27.2344 1020.3906,26.9375 1020.3906,26.6563 C1020.3906,26.375 1020.2656,26.125 1020.0469,25.9531 C1019.875,25.8281 1019.7344,25.7969 1019.2813,25.7969 L1018.8906,25.7969 L1019.2813,24.8125 L1023.3281,24.8125 Z M1022.625,23.1094 L1019.9531,23.1094 L1021.2969,19.8438 L1022.625,23.1094 Z " fill="#000000"/><text fill="#000000" font-family="sans-serif" font-size="14" font-style="italic" lengthAdjust="spacing" textLength="87" x="1041.75" y="27.8467">RenderBase</text><line style="stroke:#181818;stroke-width:0.5;" x1="858.5" x2="1279.5" y1="39" y2="39"/><line style="stroke:#181818;stroke-width:0.5;" x1="858.5" x2="1279.5" y1="47" y2="47"/><ellipse cx="868.5" cy="60.6484" fill="#84BE84" rx="3" ry="3" style="stroke:#038048;stroke-width:1.0;"/><text fill="#000000" font-family="sans-serif" font-size="14" lengthAdjust="spacing" textLength="73" x="877.5" y="63.9951">init(): void</text><ellipse cx="868.5" cy="76.9453" fill="#84BE84" rx="3" ry="3" style="stroke:#038048;stroke-width:1.0;"/><text fill="#000000" font-family="sans-serif" font-size="14" lengthAdjust="spacing" textLength="100" x="877.5" y="80.292">update(): void</text><ellipse cx="868.5" cy="93.2422" fill="#84BE84" rx="3" ry="3" style="stroke:#038048;stroke-width:1.0;"/><text fill="#000000" font-family="sans-serif" font-size="14" lengthAdjust="spacing" textLength="397" x="877.5" y="96.5889">draw(screen: SpriteBase, x: unsigned, y: unsigned): void</text></g><!--class SpriteBase--><g id="elem_SpriteBase"><rect codeLine="7" fill="#F1F1F1" height="162.0781" id="SpriteBase" rx="2.5" ry="2.5" style="stroke:#181818;stroke-width:0.5;" width="390" x="432" y="270"/><ellipse cx="583.25" cy="286" fill="#ADD1B2" rx="11" ry="11" style="stroke:#181818;stroke-width:1.0;"/><path d="M585.5938,281.6719 C584.6563,281.2344 584.0625,281.0938 583.1875,281.0938 C580.5625,281.0938 578.5625,283.1719 578.5625,285.8906 L578.5625,287.0156 C578.5625,289.5938 580.6719,291.4844 583.5625,291.4844 C584.7813,291.4844 585.9375,291.1875 586.6875,290.6406 C587.2656,290.2344 587.5938,289.7813 587.5938,289.3906 C587.5938,288.9375 587.2031,288.5469 586.7344,288.5469 C586.5156,288.5469 586.3125,288.625 586.125,288.8125 C585.6719,289.2969 585.6719,289.2969 585.4844,289.3906 C585.0625,289.6563 584.375,289.7813 583.6094,289.7813 C581.5625,289.7813 580.2656,288.6875 580.2656,286.9844 L580.2656,285.8906 C580.2656,284.1094 581.5156,282.7969 583.25,282.7969 C583.8281,282.7969 584.4375,282.9531 584.9063,283.2031 C585.3906,283.4844 585.5625,283.7031 585.6563,284.1094 C585.7188,284.5156 585.75,284.6406 585.8906,284.7656 C586.0313,284.9063 586.2656,285.0156 586.4844,285.0156 C586.75,285.0156 587.0156,284.875 587.1875,284.6563 C587.2969,284.5 587.3281,284.3125 587.3281,283.8906 L587.3281,282.4688 C587.3281,282.0313 587.3125,281.9063 587.2188,281.75 C587.0625,281.4844 586.7813,281.3438 586.4844,281.3438 C586.1875,281.3438 585.9844,281.4375 585.7656,281.75 L585.5938,281.6719 Z " fill="#000000"/><text fill="#000000" font-family="sans-serif" font-size="14" lengthAdjust="spacing" textLength="79" x="603.75" y="290.8467">SpriteBase</text><line style="stroke:#181818;stroke-width:0.5;" x1="433" x2="821" y1="302" y2="302"/><rect fill="none" height="6" style="stroke:#C82930;stroke-width:1.0;" width="6" x="440" y="312.6484"/><text fill="#000000" font-family="sans-serif" font-size="14" lengthAdjust="spacing" textLength="122" x="452" y="318.9951">largura: unsigned</text><rect fill="none" height="6" style="stroke:#C82930;stroke-width:1.0;" width="6" x="440" y="328.9453"/><text fill="#000000" font-family="sans-serif" font-size="14" lengthAdjust="spacing" textLength="159" x="452" y="335.292">alturaSprite: unsigned</text><line style="stroke:#181818;stroke-width:0.5;" x1="433" x2="821" y1="342.5938" y2="342.5938"/><ellipse cx="443" cy="356.2422" fill="#84BE84" rx="3" ry="3" style="stroke:#038048;stroke-width:1.0;"/><text fill="#000000" font-family="sans-serif" font-size="14" lengthAdjust="spacing" textLength="161" x="452" y="359.5889">getLargura(): unsigned</text><ellipse cx="443" cy="372.5391" fill="#84BE84" rx="3" ry="3" style="stroke:#038048;stroke-width:1.0;"/><text fill="#000000" font-family="sans-serif" font-size="14" lengthAdjust="spacing" textLength="151" x="452" y="375.8857">getAltura(): unsigned</text><ellipse cx="443" cy="388.8359" fill="#84BE84" rx="3" ry="3" style="stroke:#038048;stroke-width:1.0;"/><text fill="#000000" font-family="sans-serif" font-size="14" lengthAdjust="spacing" textLength="364" x="452" y="392.1826">putAt(s: SpriteBase, x: unsigned, y: unsigned): void</text><ellipse cx="443" cy="405.1328" fill="#84BE84" rx="3" ry="3" style="stroke:#038048;stroke-width:1.0;"/><text fill="#000000" font-family="sans-serif" font-size="14" lengthAdjust="spacing" textLength="238" x="452" y="408.4795">getLinha(x: unsigned): std::string</text><ellipse cx="443" cy="421.4297" fill="#84BE84" rx="3" ry="3" style="stroke:#038048;stroke-width:1.0;"/><text fill="#000000" font-family="sans-serif" font-size="14" lengthAdjust="spacing" textLength="149" x="452" y="424.7764">whoami(): std::string</text></g><!--class SpriteAnimado--><g id="elem_SpriteAnimado"><rect codeLine="17" fill="#F1F1F1" height="243.5625" id="SpriteAnimado" rx="2.5" ry="2.5" style="stroke:#181818;stroke-width:0.5;" width="390" x="7" y="598"/><ellipse cx="143.75" cy="614" fill="#ADD1B2" rx="11" ry="11" style="stroke:#181818;stroke-width:1.0;"/><path d="M146.0938,609.6719 C145.1563,609.2344 144.5625,609.0938 143.6875,609.0938 C141.0625,609.0938 139.0625,611.1719 139.0625,613.8906 L139.0625,615.0156 C139.0625,617.5938 141.1719,619.4844 144.0625,619.4844 C145.2813,619.4844 146.4375,619.1875 147.1875,618.6406 C147.7656,618.2344 148.0938,617.7813 148.0938,617.3906 C148.0938,616.9375 147.7031,616.5469 147.2344,616.5469 C147.0156,616.5469 146.8125,616.625 146.625,616.8125 C146.1719,617.2969 146.1719,617.2969 145.9844,617.3906 C145.5625,617.6563 144.875,617.7813 144.1094,617.7813 C142.0625,617.7813 140.7656,616.6875 140.7656,614.9844 L140.7656,613.8906 C140.7656,612.1094 142.0156,610.7969 143.75,610.7969 C144.3281,610.7969 144.9375,610.9531 145.4063,611.2031 C145.8906,611.4844 146.0625,611.7031 146.1563,612.1094 C146.2188,612.5156 146.25,612.6406 146.3906,612.7656 C146.5313,612.9063 146.7656,613.0156 146.9844,613.0156 C147.25,613.0156 147.5156,612.875 147.6875,612.6563 C147.7969,612.5 147.8281,612.3125 147.8281,611.8906 L147.8281,610.4688 C147.8281,610.0313 147.8125,609.9063 147.7188,609.75 C147.5625,609.4844 147.2813,609.3438 146.9844,609.3438 C146.6875,609.3438 146.4844,609.4375 146.2656,609.75 L146.0938,609.6719 Z " fill="#000000"/><text fill="#000000" font-family="sans-serif" font-size="14" lengthAdjust="spacing" textLength="108" x="164.25" y="618.8467">SpriteAnimado</text><line style="stroke:#181818;stroke-width:0.5;" x1="8" x2="396" y1="630" y2="630"/><rect fill="none" height="6" style="stroke:#C82930;stroke-width:1.0;" width="6" x="15" y="640.6484"/><text fill="#000000" font-family="sans-serif" font-size="14" lengthAdjust="spacing" textLength="173" x="27" y="646.9951">sprites: vector&lt;Sprite&gt;</text><rect fill="none" height="6" style="stroke:#C82930;stroke-width:1.0;" width="6" x="15" y="656.9453"/><text fill="#000000" font-family="sans-serif" font-size="14" lengthAdjust="spacing" textLength="156" x="27" y="663.292">numSprites: unsigned</text><rect fill="none" height="6" style="stroke:#C82930;stroke-width:1.0;" width="6" x="15" y="673.2422"/><text fill="#000000" font-family="sans-serif" font-size="14" lengthAdjust="spacing" textLength="131" x="27" y="679.5889">velAnim: unsigned</text><rect fill="none" height="6" style="stroke:#C82930;stroke-width:1.0;" width="6" x="15" y="689.5391"/><text fill="#000000" font-family="sans-serif" font-size="14" lengthAdjust="spacing" textLength="143" x="27" y="695.8857">stepAnim: unsigned</text><rect fill="none" height="6" style="stroke:#C82930;stroke-width:1.0;" width="6" x="15" y="705.8359"/><text fill="#000000" font-family="sans-serif" font-size="14" lengthAdjust="spacing" textLength="159" x="27" y="712.1826">iSpriteAnim: unsigned</text><line style="stroke:#181818;stroke-width:0.5;" x1="8" x2="396" y1="719.4844" y2="719.4844"/><ellipse cx="18" cy="733.1328" fill="#84BE84" rx="3" ry="3" style="stroke:#038048;stroke-width:1.0;"/><text fill="#000000" font-family="sans-serif" font-size="14" lengthAdjust="spacing" textLength="111" x="27" y="736.4795">size(): unsigned</text><ellipse cx="18" cy="749.4297" fill="#84BE84" rx="3" ry="3" style="stroke:#038048;stroke-width:1.0;"/><text fill="#000000" font-family="sans-serif" font-size="14" lengthAdjust="spacing" textLength="158" x="27" y="752.7764">operator[](int): Sprite</text><ellipse cx="18" cy="765.7266" fill="#84BE84" rx="3" ry="3" style="stroke:#038048;stroke-width:1.0;"/><text fill="#000000" font-family="sans-serif" font-size="14" lengthAdjust="spacing" textLength="364" x="27" y="769.0732">putAt(s: SpriteBase, x: unsigned, y: unsigned): void</text><ellipse cx="18" cy="782.0234" fill="#84BE84" rx="3" ry="3" style="stroke:#038048;stroke-width:1.0;"/><text fill="#000000" font-family="sans-serif" font-size="14" lengthAdjust="spacing" textLength="149" x="27" y="785.3701">whoami(): std::string</text><ellipse cx="18" cy="798.3203" fill="#84BE84" rx="3" ry="3" style="stroke:#038048;stroke-width:1.0;"/><text fill="#000000" font-family="sans-serif" font-size="14" lengthAdjust="spacing" textLength="73" x="27" y="801.667">init(): void</text><ellipse cx="18" cy="814.6172" fill="#84BE84" rx="3" ry="3" style="stroke:#038048;stroke-width:1.0;"/><text fill="#000000" font-family="sans-serif" font-size="14" lengthAdjust="spacing" textLength="100" x="27" y="817.9639">update(): void</text><ellipse cx="18" cy="830.9141" fill="#84BE84" rx="3" ry="3" style="stroke:#038048;stroke-width:1.0;"/><text fill="#000000" font-family="sans-serif" font-size="14" lengthAdjust="spacing" textLength="238" x="27" y="834.2607">getLinha(x: unsigned): std::string</text></g><!--class SpriteBuffer--><g id="elem_SpriteBuffer"><rect codeLine="32" fill="#F1F1F1" height="129.4844" id="SpriteBuffer" rx="2.5" ry="2.5" style="stroke:#181818;stroke-width:0.5;" width="390" x="432" y="655.5"/><ellipse cx="577.75" cy="671.5" fill="#ADD1B2" rx="11" ry="11" style="stroke:#181818;stroke-width:1.0;"/><path d="M580.0938,667.1719 C579.1563,666.7344 578.5625,666.5938 577.6875,666.5938 C575.0625,666.5938 573.0625,668.6719 573.0625,671.3906 L573.0625,672.5156 C573.0625,675.0938 575.1719,676.9844 578.0625,676.9844 C579.2813,676.9844 580.4375,676.6875 581.1875,676.1406 C581.7656,675.7344 582.0938,675.2813 582.0938,674.8906 C582.0938,674.4375 581.7031,674.0469 581.2344,674.0469 C581.0156,674.0469 580.8125,674.125 580.625,674.3125 C580.1719,674.7969 580.1719,674.7969 579.9844,674.8906 C579.5625,675.1563 578.875,675.2813 578.1094,675.2813 C576.0625,675.2813 574.7656,674.1875 574.7656,672.4844 L574.7656,671.3906 C574.7656,669.6094 576.0156,668.2969 577.75,668.2969 C578.3281,668.2969 578.9375,668.4531 579.4063,668.7031 C579.8906,668.9844 580.0625,669.2031 580.1563,669.6094 C580.2188,670.0156 580.25,670.1406 580.3906,670.2656 C580.5313,670.4063 580.7656,670.5156 580.9844,670.5156 C581.25,670.5156 581.5156,670.375 581.6875,670.1563 C581.7969,670 581.8281,669.8125 581.8281,669.3906 L581.8281,667.9688 C581.8281,667.5313 581.8125,667.4063 581.7188,667.25 C581.5625,666.9844 581.2813,666.8438 580.9844,666.8438 C580.6875,666.8438 580.4844,666.9375 580.2656,667.25 L580.0938,667.1719 Z " fill="#000000"/><text fill="#000000" font-family="sans-serif" font-size="14" lengthAdjust="spacing" textLength="90" x="598.25" y="676.3467">SpriteBuffer</text><line style="stroke:#181818;stroke-width:0.5;" x1="433" x2="821" y1="687.5" y2="687.5"/><rect fill="none" height="6" style="stroke:#C82930;stroke-width:1.0;" width="6" x="440" y="698.1484"/><text fill="#000000" font-family="sans-serif" font-size="14" lengthAdjust="spacing" textLength="150" x="452" y="704.4951">sprt: vector&lt;string&gt;</text><line style="stroke:#181818;stroke-width:0.5;" x1="433" x2="821" y1="711.7969" y2="711.7969"/><ellipse cx="443" cy="725.4453" fill="#84BE84" rx="3" ry="3" style="stroke:#038048;stroke-width:1.0;"/><text fill="#000000" font-family="sans-serif" font-size="14" lengthAdjust="spacing" textLength="84" x="452" y="728.792">clear(): void</text><ellipse cx="443" cy="741.7422" fill="#84BE84" rx="3" ry="3" style="stroke:#038048;stroke-width:1.0;"/><text fill="#000000" font-family="sans-serif" font-size="14" lengthAdjust="spacing" textLength="364" x="452" y="745.0889">putAt(s: SpriteBase, x: unsigned, y: unsigned): void</text><ellipse cx="443" cy="758.0391" fill="#84BE84" rx="3" ry="3" style="stroke:#038048;stroke-width:1.0;"/><text fill="#000000" font-family="sans-serif" font-size="14" lengthAdjust="spacing" textLength="238" x="452" y="761.3857">getLinha(x: unsigned): std::string</text><ellipse cx="443" cy="774.3359" fill="#84BE84" rx="3" ry="3" style="stroke:#038048;stroke-width:1.0;"/><text fill="#000000" font-family="sans-serif" font-size="14" lengthAdjust="spacing" textLength="149" x="452" y="777.6826">whoami(): std::string</text></g><!--class TextSprite--><g id="elem_TextSprite"><rect codeLine="40" fill="#F1F1F1" height="129.4844" id="TextSprite" rx="2.5" ry="2.5" style="stroke:#181818;stroke-width:0.5;" width="390" x="857" y="655.5"/><ellipse cx="1008.75" cy="671.5" fill="#ADD1B2" rx="11" ry="11" style="stroke:#181818;stroke-width:1.0;"/><path d="M1011.0938,667.1719 C1010.1563,666.7344 1009.5625,666.5938 1008.6875,666.5938 C1006.0625,666.5938 1004.0625,668.6719 1004.0625,671.3906 L1004.0625,672.5156 C1004.0625,675.0938 1006.1719,676.9844 1009.0625,676.9844 C1010.2813,676.9844 1011.4375,676.6875 1012.1875,676.1406 C1012.7656,675.7344 1013.0938,675.2813 1013.0938,674.8906 C1013.0938,674.4375 1012.7031,674.0469 1012.2344,674.0469 C1012.0156,674.0469 1011.8125,674.125 1011.625,674.3125 C1011.1719,674.7969 1011.1719,674.7969 1010.9844,674.8906 C1010.5625,675.1563 1009.875,675.2813 1009.1094,675.2813 C1007.0625,675.2813 1005.7656,674.1875 1005.7656,672.4844 L1005.7656,671.3906 C1005.7656,669.6094 1007.0156,668.2969 1008.75,668.2969 C1009.3281,668.2969 1009.9375,668.4531 1010.4063,668.7031 C1010.8906,668.9844 1011.0625,669.2031 1011.1563,669.6094 C1011.2188,670.0156 1011.25,670.1406 1011.3906,670.2656 C1011.5313,670.4063 1011.7656,670.5156 1011.9844,670.5156 C1012.25,670.5156 1012.5156,670.375 1012.6875,670.1563 C1012.7969,670 1012.8281,669.8125 1012.8281,669.3906 L1012.8281,667.9688 C1012.8281,667.5313 1012.8125,667.4063 1012.7188,667.25 C1012.5625,666.9844 1012.2813,666.8438 1011.9844,666.8438 C1011.6875,666.8438 1011.4844,666.9375 1011.2656,667.25 L1011.0938,667.1719 Z " fill="#000000"/><text fill="#000000" font-family="sans-serif" font-size="14" lengthAdjust="spacing" textLength="78" x="1029.25" y="676.3467">TextSprite</text><line style="stroke:#181818;stroke-width:0.5;" x1="858" x2="1246" y1="687.5" y2="687.5"/><rect fill="none" height="6" style="stroke:#C82930;stroke-width:1.0;" width="6" x="865" y="698.1484"/><text fill="#000000" font-family="sans-serif" font-size="14" lengthAdjust="spacing" textLength="82" x="877" y="704.4951">text: string</text><line style="stroke:#181818;stroke-width:0.5;" x1="858" x2="1246" y1="711.7969" y2="711.7969"/><ellipse cx="868" cy="725.4453" fill="#84BE84" rx="3" ry="3" style="stroke:#038048;stroke-width:1.0;"/><text fill="#000000" font-family="sans-serif" font-size="14" lengthAdjust="spacing" textLength="187" x="877" y="728.792">setText(text: string): void</text><ellipse cx="868" cy="741.7422" fill="#84BE84" rx="3" ry="3" style="stroke:#038048;stroke-width:1.0;"/><text fill="#000000" font-family="sans-serif" font-size="14" lengthAdjust="spacing" textLength="364" x="877" y="745.0889">putAt(s: SpriteBase, x: unsigned, y: unsigned): void</text><ellipse cx="868" cy="758.0391" fill="#84BE84" rx="3" ry="3" style="stroke:#038048;stroke-width:1.0;"/><text fill="#000000" font-family="sans-serif" font-size="14" lengthAdjust="spacing" textLength="238" x="877" y="761.3857">getLinha(x: unsigned): std::string</text><ellipse cx="868" cy="774.3359" fill="#84BE84" rx="3" ry="3" style="stroke:#038048;stroke-width:1.0;"/><text fill="#000000" font-family="sans-serif" font-size="14" lengthAdjust="spacing" textLength="149" x="877" y="777.6826">whoami(): std::string</text></g><!--class ObjetoDeJogo--><g id="elem_ObjetoDeJogo"><rect codeLine="48" fill="#F1F1F1" height="373.9375" id="ObjetoDeJogo" rx="2.5" ry="2.5" style="stroke:#181818;stroke-width:0.5;" width="423" x="857.5" y="164"/><ellipse cx="1014.25" cy="180" fill="#ADD1B2" rx="11" ry="11" style="stroke:#181818;stroke-width:1.0;"/><path d="M1016.5938,175.6719 C1015.6563,175.2344 1015.0625,175.0938 1014.1875,175.0938 C1011.5625,175.0938 1009.5625,177.1719 1009.5625,179.8906 L1009.5625,181.0156 C1009.5625,183.5938 1011.6719,185.4844 1014.5625,185.4844 C1015.7813,185.4844 1016.9375,185.1875 1017.6875,184.6406 C1018.2656,184.2344 1018.5938,183.7813 1018.5938,183.3906 C1018.5938,182.9375 1018.2031,182.5469 1017.7344,182.5469 C1017.5156,182.5469 1017.3125,182.625 1017.125,182.8125 C1016.6719,183.2969 1016.6719,183.2969 1016.4844,183.3906 C1016.0625,183.6563 1015.375,183.7813 1014.6094,183.7813 C1012.5625,183.7813 1011.2656,182.6875 1011.2656,180.9844 L1011.2656,179.8906 C1011.2656,178.1094 1012.5156,176.7969 1014.25,176.7969 C1014.8281,176.7969 1015.4375,176.9531 1015.9063,177.2031 C1016.3906,177.4844 1016.5625,177.7031 1016.6563,178.1094 C1016.7188,178.5156 1016.75,178.6406 1016.8906,178.7656 C1017.0313,178.9063 1017.2656,179.0156 1017.4844,179.0156 C1017.75,179.0156 1018.0156,178.875 1018.1875,178.6563 C1018.2969,178.5 1018.3281,178.3125 1018.3281,177.8906 L1018.3281,176.4688 C1018.3281,176.0313 1018.3125,175.9063 1018.2188,175.75 C1018.0625,175.4844 1017.7813,175.3438 1017.4844,175.3438 C1017.1875,175.3438 1016.9844,175.4375 1016.7656,175.75 L1016.5938,175.6719 Z " fill="#000000"/><text fill="#000000" font-family="sans-serif" font-size="14" lengthAdjust="spacing" textLength="101" x="1034.75" y="184.8467">ObjetoDeJogo</text><line style="stroke:#181818;stroke-width:0.5;" x1="858.5" x2="1279.5" y1="196" y2="196"/><rect fill="none" height="6" style="stroke:#C82930;stroke-width:1.0;" width="6" x="865.5" y="206.6484"/><text fill="#000000" font-family="sans-serif" font-size="14" lengthAdjust="spacing" textLength="91" x="877.5" y="212.9951">name: string</text><rect fill="none" height="6" style="stroke:#C82930;stroke-width:1.0;" width="6" x="865.5" y="222.9453"/><text fill="#000000" font-family="sans-serif" font-size="14" lengthAdjust="spacing" textLength="107" x="877.5" y="229.292">posL: unsigned</text><rect fill="none" height="6" style="stroke:#C82930;stroke-width:1.0;" width="6" x="865.5" y="239.2422"/><text fill="#000000" font-family="sans-serif" font-size="14" lengthAdjust="spacing" textLength="109" x="877.5" y="245.5889">posC: unsigned</text><rect fill="none" height="6" style="stroke:#C82930;stroke-width:1.0;" width="6" x="865.5" y="255.5391"/><text fill="#000000" font-family="sans-serif" font-size="14" lengthAdjust="spacing" textLength="143" x="877.5" y="261.8857">pSprite: SpriteBase</text><rect fill="none" height="6" style="stroke:#C82930;stroke-width:1.0;" width="6" x="865.5" y="271.8359"/><text fill="#000000" font-family="sans-serif" font-size="14" lengthAdjust="spacing" textLength="85" x="877.5" y="278.1826">active: bool</text><line style="stroke:#181818;stroke-width:0.5;" x1="858.5" x2="1279.5" y1="285.4844" y2="285.4844"/><ellipse cx="868.5" cy="299.1328" fill="#84BE84" rx="3" ry="3" style="stroke:#038048;stroke-width:1.0;"/><text fill="#000000" font-family="sans-serif" font-size="14" lengthAdjust="spacing" textLength="246" x="877.5" y="302.4795">colideCom(o: ObjetoDeJogo): bool</text><ellipse cx="868.5" cy="315.4297" fill="#84BE84" rx="3" ry="3" style="stroke:#038048;stroke-width:1.0;"/><text fill="#000000" font-family="sans-serif" font-size="14" lengthAdjust="spacing" textLength="331" x="877.5" y="318.7764">moveTo(posL: unsigned, posC: unsigned): void</text><ellipse cx="868.5" cy="331.7266" fill="#84BE84" rx="3" ry="3" style="stroke:#038048;stroke-width:1.0;"/><text fill="#000000" font-family="sans-serif" font-size="14" lengthAdjust="spacing" textLength="183" x="877.5" y="335.0732">moveLeft(qpos: int): void</text><ellipse cx="868.5" cy="348.0234" fill="#84BE84" rx="3" ry="3" style="stroke:#038048;stroke-width:1.0;"/><text fill="#000000" font-family="sans-serif" font-size="14" lengthAdjust="spacing" textLength="192" x="877.5" y="351.3701">moveRight(qpos: int): void</text><ellipse cx="868.5" cy="364.3203" fill="#84BE84" rx="3" ry="3" style="stroke:#038048;stroke-width:1.0;"/><text fill="#000000" font-family="sans-serif" font-size="14" lengthAdjust="spacing" textLength="172" x="877.5" y="367.667">moveUp(qpos: int): void</text><ellipse cx="868.5" cy="380.6172" fill="#84BE84" rx="3" ry="3" style="stroke:#038048;stroke-width:1.0;"/><text fill="#000000" font-family="sans-serif" font-size="14" lengthAdjust="spacing" textLength="193" x="877.5" y="383.9639">moveDown(qpos: int): void</text><ellipse cx="868.5" cy="396.9141" fill="#84BE84" rx="3" ry="3" style="stroke:#038048;stroke-width:1.0;"/><text fill="#000000" font-family="sans-serif" font-size="14" lengthAdjust="spacing" textLength="127" x="877.5" y="400.2607">getName(): string</text><ellipse cx="868.5" cy="413.2109" fill="#84BE84" rx="3" ry="3" style="stroke:#038048;stroke-width:1.0;"/><text fill="#000000" font-family="sans-serif" font-size="14" lengthAdjust="spacing" textLength="141" x="877.5" y="416.5576">getPosL(): unsigned</text><ellipse cx="868.5" cy="429.5078" fill="#84BE84" rx="3" ry="3" style="stroke:#038048;stroke-width:1.0;"/><text fill="#000000" font-family="sans-serif" font-size="14" lengthAdjust="spacing" textLength="143" x="877.5" y="432.8545">getPosC(): unsigned</text><ellipse cx="868.5" cy="445.8047" fill="#84BE84" rx="3" ry="3" style="stroke:#038048;stroke-width:1.0;"/><text fill="#000000" font-family="sans-serif" font-size="14" lengthAdjust="spacing" textLength="168" x="877.5" y="449.1514">getSprite(): SpriteBase</text><ellipse cx="868.5" cy="462.1016" fill="#84BE84" rx="3" ry="3" style="stroke:#038048;stroke-width:1.0;"/><text fill="#000000" font-family="sans-serif" font-size="14" lengthAdjust="spacing" textLength="115" x="877.5" y="465.4482">ativarObj(): void</text><ellipse cx="868.5" cy="478.3984" fill="#84BE84" rx="3" ry="3" style="stroke:#038048;stroke-width:1.0;"/><text fill="#000000" font-family="sans-serif" font-size="14" lengthAdjust="spacing" textLength="140" x="877.5" y="481.7451">desativarObj(): void</text><ellipse cx="868.5" cy="494.6953" fill="#84BE84" rx="3" ry="3" style="stroke:#038048;stroke-width:1.0;"/><text fill="#000000" font-family="sans-serif" font-size="14" lengthAdjust="spacing" textLength="73" x="877.5" y="498.042">init(): void</text><ellipse cx="868.5" cy="510.9922" fill="#84BE84" rx="3" ry="3" style="stroke:#038048;stroke-width:1.0;"/><text fill="#000000" font-family="sans-serif" font-size="14" lengthAdjust="spacing" textLength="100" x="877.5" y="514.3389">update(): void</text><ellipse cx="868.5" cy="527.2891" fill="#84BE84" rx="3" ry="3" style="stroke:#038048;stroke-width:1.0;"/><text fill="#000000" font-family="sans-serif" font-size="14" lengthAdjust="spacing" textLength="397" x="877.5" y="530.6357">draw(screen: SpriteBase, x: unsigned, y: unsigned): void</text></g><!--class Fase--><g id="elem_Fase"><rect codeLine="71" fill="#F1F1F1" height="178.375" id="Fase" rx="2.5" ry="2.5" style="stroke:#181818;stroke-width:0.5;" width="423" x="1315.5" y="262"/><ellipse cx="1506.75" cy="278" fill="#ADD1B2" rx="11" ry="11" style="stroke:#181818;stroke-width:1.0;"/><path d="M1509.0938,273.6719 C1508.1563,273.2344 1507.5625,273.0938 1506.6875,273.0938 C1504.0625,273.0938 1502.0625,275.1719 1502.0625,277.8906 L1502.0625,279.0156 C1502.0625,281.5938 1504.1719,283.4844 1507.0625,283.4844 C1508.2813,283.4844 1509.4375,283.1875 1510.1875,282.6406 C1510.7656,282.2344 1511.0938,281.7813 1511.0938,281.3906 C1511.0938,280.9375 1510.7031,280.5469 1510.2344,280.5469 C1510.0156,280.5469 1509.8125,280.625 1509.625,280.8125 C1509.1719,281.2969 1509.1719,281.2969 1508.9844,281.3906 C1508.5625,281.6563 1507.875,281.7813 1507.1094,281.7813 C1505.0625,281.7813 1503.7656,280.6875 1503.7656,278.9844 L1503.7656,277.8906 C1503.7656,276.1094 1505.0156,274.7969 1506.75,274.7969 C1507.3281,274.7969 1507.9375,274.9531 1508.4063,275.2031 C1508.8906,275.4844 1509.0625,275.7031 1509.1563,276.1094 C1509.2188,276.5156 1509.25,276.6406 1509.3906,276.7656 C1509.5313,276.9063 1509.7656,277.0156 1509.9844,277.0156 C1510.25,277.0156 1510.5156,276.875 1510.6875,276.6563 C1510.7969,276.5 1510.8281,276.3125 1510.8281,275.8906 L1510.8281,274.4688 C1510.8281,274.0313 1510.8125,273.9063 1510.7188,273.75 C1510.5625,273.4844 1510.2813,273.3438 1509.9844,273.3438 C1509.6875,273.3438 1509.4844,273.4375 1509.2656,273.75 L1509.0938,273.6719 Z " fill="#000000"/><text fill="#000000" font-family="sans-serif" font-size="14" lengthAdjust="spacing" textLength="32" x="1527.25" y="282.8467">Fase</text><line style="stroke:#181818;stroke-width:0.5;" x1="1316.5" x2="1737.5" y1="294" y2="294"/><rect fill="none" height="6" style="stroke:#C82930;stroke-width:1.0;" width="6" x="1323.5" y="304.6484"/><text fill="#000000" font-family="sans-serif" font-size="14" lengthAdjust="spacing" textLength="173" x="1335.5" y="310.9951">background: SpriteBase</text><rect fill="none" height="6" style="stroke:#C82930;stroke-width:1.0;" width="6" x="1323.5" y="320.9453"/><text fill="#000000" font-family="sans-serif" font-size="14" lengthAdjust="spacing" textLength="184" x="1335.5" y="327.292">objs: list&lt;ObjetoDeJogo&gt;</text><line style="stroke:#181818;stroke-width:0.5;" x1="1316.5" x2="1737.5" y1="334.5938" y2="334.5938"/><ellipse cx="1326.5" cy="348.2422" fill="#84BE84" rx="3" ry="3" style="stroke:#038048;stroke-width:1.0;"/><text fill="#000000" font-family="sans-serif" font-size="14" lengthAdjust="spacing" textLength="253" x="1335.5" y="351.5889">run(screen: SpriteBuffer): unsigned</text><ellipse cx="1326.5" cy="364.5391" fill="#84BE84" rx="3" ry="3" style="stroke:#038048;stroke-width:1.0;"/><text fill="#000000" font-family="sans-serif" font-size="14" lengthAdjust="spacing" textLength="232" x="1335.5" y="367.8857">show(screen: SpriteBuffer): void</text><ellipse cx="1326.5" cy="380.8359" fill="#84BE84" rx="3" ry="3" style="stroke:#038048;stroke-width:1.0;"/><text fill="#000000" font-family="sans-serif" font-size="14" lengthAdjust="spacing" textLength="127" x="1335.5" y="384.1826">getName(): string</text><ellipse cx="1326.5" cy="397.1328" fill="#84BE84" rx="3" ry="3" style="stroke:#038048;stroke-width:1.0;"/><text fill="#000000" font-family="sans-serif" font-size="14" lengthAdjust="spacing" textLength="73" x="1335.5" y="400.4795">init(): void</text><ellipse cx="1326.5" cy="413.4297" fill="#84BE84" rx="3" ry="3" style="stroke:#038048;stroke-width:1.0;"/><text fill="#000000" font-family="sans-serif" font-size="14" lengthAdjust="spacing" textLength="100" x="1335.5" y="416.7764">update(): void</text><ellipse cx="1326.5" cy="429.7266" fill="#84BE84" rx="3" ry="3" style="stroke:#038048;stroke-width:1.0;"/><text fill="#000000" font-family="sans-serif" font-size="14" lengthAdjust="spacing" textLength="397" x="1335.5" y="433.0732">draw(screen: SpriteBase, x: unsigned, y: unsigned): void</text></g><!--reverse link RenderBase to SpriteBase--><g id="link_RenderBase_SpriteBase"><path codeLine="81" d="M935.12,111.5502 C898.265,128.4432 874.57,141.432 840,164 C793.238,194.528 745.979,234.649 707.896,269.811 " fill="none" id="RenderBase-backto-SpriteBase" style="stroke:#181818;stroke-width:1.0;"/><polygon fill="none" points="951.483,104.05,932.62,106.0959,937.6201,117.0045,951.483,104.05" style="stroke:#181818;stroke-width:1.0;"/></g><!--reverse link SpriteBase to SpriteAnimado--><g id="link_SpriteBase_SpriteAnimado"><path codeLine="82" d="M520.6335,443.8504 C464.4585,492.3594 405.328,543.421 342.226,597.911 " fill="none" id="SpriteBase-backto-SpriteAnimado" style="stroke:#181818;stroke-width:1.0;"/><polygon fill="none" points="534.257,432.086,516.712,439.3092,524.5549,448.3915,534.257,432.086" style="stroke:#181818;stroke-width:1.0;"/></g><!--reverse link SpriteBase to SpriteBuffer--><g id="link_SpriteBase_SpriteBuffer"><path codeLine="83" d="M627,450.086 C627,517.05 627,593.294 627,655.234 " fill="none" id="SpriteBase-backto-SpriteBuffer" style="stroke:#181818;stroke-width:1.0;"/><polygon fill="none" points="627,432.086,621,450.086,633,450.086,627,432.086" style="stroke:#181818;stroke-width:1.0;"/></g><!--reverse link SpriteBase to TextSprite--><g id="link_SpriteBase_TextSprite"><path codeLine="84" d="M731.8277,443.9556 C769.4407,476.8596 799.962,503.428 840,538 C885.238,577.061 936.167,620.559 976.768,655.121 " fill="none" id="SpriteBase-backto-TextSprite" style="stroke:#181818;stroke-width:1.0;"/><polygon fill="none" points="718.28,432.104,727.8772,448.4715,735.7782,439.4397,718.28,432.104" style="stroke:#181818;stroke-width:1.0;"/></g><!--reverse link RenderBase to ObjetoDeJogo--><g id="link_RenderBase_ObjetoDeJogo"><path codeLine="85" d="M1069,122.309 C1069,139.446 1069,141.952 1069,163.712 " fill="none" id="RenderBase-backto-ObjetoDeJogo" style="stroke:#181818;stroke-width:1.0;"/><polygon fill="none" points="1069,104.309,1063,122.309,1075,122.309,1069,104.309" style="stroke:#181818;stroke-width:1.0;"/></g><!--reverse link RenderBase to Fase--><g id="link_RenderBase_Fase"><path codeLine="86" d="M1200.9326,111.622 C1238.1626,128.689 1262.57,141.76 1298,164 C1343.44,192.523 1390.04,228.845 1429.23,261.809 " fill="none" id="RenderBase-backto-Fase" style="stroke:#181818;stroke-width:1.0;"/><polygon fill="none" points="1184.57,104.121,1198.4323,117.0762,1203.4329,106.1678,1184.57,104.121" style="stroke:#181818;stroke-width:1.0;"/></g><!--SRC=[pPRDRjim3CVlUGeT5IHv0ICeaANOOGYseUrEmmwonJZgRCcJQ2VxUlV9aHtBabEq650qj_1FYkIFZ1IM6jGiGv8Lp1Xo1vA3ViSCaDypOZyB8gH0Eaz8emJlJ7N56K9Wv9eTgSaqW4p8VQK5GdlEafmIKaiZSWbyINuEN_hmlxEPIpu4TSbNf60whpKRWZexAz2QNK0WBaWEk7DnROcnk3a7JsXLZHkavcNb3pc5F31w6daOv4bY2GkPTux7WsAbe84MCDX8KJAkBXZCsMeBQo13fTVEwwPJPLtUzmu1fmQAzgp8RX2gIK4C1KHuZFW54zHK1PhPghv-eqBYlAVt_qodKRriAvynbt3_wlqUj8yUBznTn4rtTbO0qq6-Dx123t12b_tI15fJw-qTOW1RH-fBRwwLJ-aZeBg53oeVVWoIbJ1gPaKgPNRHAblZDZRsTyRGL7-bP2WQAwHA5Vs0LI4uR5L9LJAgPJvoArK33ugEYrW6-SU0sf0Tx97-i5u9SR-RGByJ-U59Xo_LK-gjEifhkftFHqlHSVV6OUsVRHVJrwPLjjEAOqdd4TK5OHOgqvPT-5g0kIQzteFptdzgKfPzpxMg9PzO3fK-Mew5CBZszw2_2NGjmqhEjqXConpKyPhhCmRq2coylm3hFwkLpy9xe3sfUwokgAwxI1mkgIYX3pWIsv7z0m00]--></g></svg>